<?xml version="1.0" standalone="no"?><!DOCTYPE svg PUBLIC "-//W3C//DTD SVG 1.1//EN" "http://www.w3.org/Graphics/SVG/1.1/DTD/svg11.dtd"><svg t="1539761293853" class="icon" style="" viewBox="0 0 1024 1024" version="1.1" xmlns="http://www.w3.org/2000/svg" p-id="1286" xmlns:xlink="http://www.w3.org/1999/xlink" width="200" height="200"><defs><style type="text/css"></style></defs><path d="M857.6 988.672H166.912c-30.72 0-59.904-12.288-81.408-33.792-21.504-21.504-33.792-50.688-33.792-81.408v-691.2C51.712 118.784 103.936 61.44 167.424 61.44h463.36v57.856H167.424c-31.744 0-58.368 30.72-58.368 62.464v691.2c0 31.744 25.6 57.344 57.344 57.344h690.688c31.744 0 62.976-26.624 62.976-58.368V409.6H977.92v463.36c0.512 63.488-56.832 115.712-120.32 115.712z m-344.064-279.04c-8.192 8.192-18.944 12.8-29.696 14.848l-251.904 124.416c-28.16 13.312-51.2-12.288-40.448-40.448l124.416-251.904c2.048-10.752 6.144-21.504 14.848-29.696L778.24 78.848c22.528-22.528 58.88-22.528 81.408 0l101.888 101.888c10.752 10.752 16.896 25.6 16.896 40.96s-6.144 29.696-16.896 40.96l-448 446.976z m-267.264 64c-6.656 13.312 6.144 27.136 20.48 20.48l155.648-94.208-81.92-81.92-94.208 155.648z m144.896-185.856l60.928 60.928 20.48 20.48L798.208 343.04l-102.4-100.864-325.12 325.12 20.48 20.48z m508.928-387.072l-60.928-60.928c-5.632-5.632-12.8-8.704-20.48-8.704s-14.848 3.072-20.48 8.704l-59.392 59.392 100.352 103.424 60.928-60.928c11.264-11.264 11.264-29.696 0-40.96z m0 0z" fill="" p-id="1287"></path></svg>